<svg width="169" height="28" viewBox="0 0 169 28" fill="none" xmlns="http://www.w3.org/2000/svg">
<g clip-path="url(#clip0_3402_7897)">
<path d="M13.5008 2.61426C7.21233 2.61426 2.11523 7.71135 2.11523 13.9999C2.11523 18.531 4.76885 22.4317 8.60034 24.2642L8.9567 17.3782C8.9567 17.3782 8.28638 17.1582 8.13965 17.0866C6.71789 16.4603 5.68504 14.6163 5.68504 12.223C5.68504 9.61146 7.71039 7.36201 9.6685 7.34343C9.67099 7.34343 9.67099 7.34343 9.67262 7.34343C9.67347 7.34343 9.6751 7.34343 9.67588 7.34343C11.6344 7.36194 13.6598 9.61139 13.6598 12.223C13.6598 14.6163 12.6257 16.4595 11.2069 17.0866C11.1957 17.0915 10.3833 17.3865 10.3833 17.3865L10.7813 25.0429C11.6546 25.2578 12.5627 25.384 13.5024 25.384C14.7697 25.384 15.9834 25.1681 17.1221 24.7866L17.4748 17.9633C16.5454 17.7589 15.7527 17.1672 15.2559 16.4249C14.6404 15.5029 15.7297 7.34265 15.7297 7.34265H16.4383V15.0002H17.142V7.3435H17.9116V15.0019H18.612V7.3435H19.4104V15.0019H20.1132V7.3435H20.657C20.657 7.3435 21.7463 15.5038 21.1301 16.4258C20.6381 17.1608 19.8528 17.7507 18.935 17.96C18.9186 17.9658 18.9037 17.9715 18.9037 17.9715L19.2102 23.8407C22.6017 21.8689 24.8874 18.2056 24.8874 14C24.8857 7.71142 19.7886 2.61426 13.5008 2.61426Z" fill="#E9DFCB"/>
<path d="M7.35144 11.0651C7.39222 10.8991 7.44703 10.7413 7.44952 10.7384C7.46725 10.6762 7.43427 10.6128 7.36668 10.5724C7.30243 10.5378 7.22414 10.5555 7.1879 10.6111C7.1879 10.6111 7.11003 10.7352 6.99713 10.9185C6.90529 11.0763 6.76934 11.3284 6.67658 11.6424C6.59623 11.9175 6.50028 12.2834 6.45702 12.6929C6.43851 12.908 6.43432 13.102 6.44092 13.3018C6.45702 13.5296 6.49156 13.7244 6.55751 13.9473C6.78119 14.583 6.95345 15.1986 7.57511 15.8058C7.77163 16.0077 7.97353 16.1453 8.11934 16.2466L8.17083 16.2829C8.20217 16.3035 8.23224 16.3225 8.26188 16.3398C8.38429 16.4041 8.4662 16.4271 8.48109 16.4304C8.54201 16.4468 8.6047 16.4172 8.63059 16.3678C8.65491 16.3159 8.63718 16.2508 8.58655 16.2096C8.58655 16.2096 8.51563 16.1479 8.42464 16.0325C8.36245 15.9624 8.29486 15.8611 8.21621 15.7466C8.16061 15.6658 8.09508 15.5743 8.03409 15.4853C7.73127 15.0231 7.55667 14.3779 7.3152 13.7171C7.26783 13.5737 7.2291 13.3879 7.21464 13.2301C7.19535 13.048 7.18627 12.8725 7.18627 12.7097C7.17925 12.3315 7.19613 12.0069 7.2291 11.7436C7.26697 11.4466 7.29662 11.2237 7.35144 11.0651Z" fill="#E9DFCB"/>
<path d="M13.5008 0.5C6.05747 0.5 0 6.55619 0 14C0 21.4421 6.05747 27.5 13.5008 27.5C20.9438 27.5 27.0001 21.4421 27.0001 14C27 6.55619 20.9438 0.5 13.5008 0.5ZM13.5008 26.4931C6.61155 26.4931 1.00647 20.8885 1.00647 14C1.00647 7.1107 6.61155 1.50562 13.5008 1.50562C20.3893 1.50562 25.9948 7.1107 25.9948 14C25.9947 20.8885 20.3892 26.4931 13.5008 26.4931Z" fill="#E9DFCB"/>
</g>
<g clip-path="url(#clip1_3402_7897)">
<path d="M49.6361 7.06988V7.49738C49.2761 7.55739 48.9611 7.64739 48.6911 7.76738C48.4211 7.87238 48.1511 8.02988 47.8811 8.23988C47.6111 8.44988 47.281 8.74238 46.8911 9.11738L42.3686 13.6399L43.2686 12.5599L48.3086 18.9274C48.5635 19.2574 48.8335 19.5349 49.1186 19.7599C49.4036 19.9849 49.7186 20.1649 50.0636 20.2999V20.7499C49.7036 20.7199 49.2835 20.7049 48.8036 20.7049C48.3385 20.6899 47.9186 20.6824 47.5436 20.6824C47.2436 20.6824 46.8535 20.6899 46.3736 20.7049C45.9085 20.7049 45.346 20.7199 44.6861 20.7499V20.2999C45.4661 20.2699 45.8936 20.1799 45.9686 20.0299C46.0586 19.8649 45.9836 19.6174 45.7436 19.2874L42.7511 15.1249C42.4511 14.7049 42.1361 14.4049 41.8061 14.2249C41.4761 14.0299 40.9886 13.9249 40.3436 13.9099V13.5274C40.8536 13.4974 41.3411 13.3924 41.8061 13.2124C42.286 13.0174 42.8336 12.6199 43.4486 12.0199L46.1261 9.27488C46.3661 9.04988 46.5311 8.83238 46.6211 8.62238C46.7111 8.41239 46.7261 8.22488 46.6661 8.05988C46.6211 7.89489 46.4861 7.76738 46.2611 7.67738C46.0511 7.57238 45.7586 7.51239 45.3836 7.49738V7.06988C45.7886 7.08488 46.2311 7.09988 46.7111 7.11488C47.2061 7.12988 47.6486 7.13738 48.0386 7.13738C48.3385 7.13738 48.6236 7.12988 48.8936 7.11488C49.1786 7.09988 49.4261 7.08488 49.6361 7.06988ZM42.2561 7.06988V7.51988C41.746 7.53489 41.3561 7.59488 41.0861 7.69988C40.8311 7.78988 40.6586 7.96988 40.5686 8.23988C40.4786 8.49488 40.4336 8.89988 40.4336 9.45488V18.3649C40.4336 18.9049 40.4786 19.3099 40.5686 19.5799C40.6586 19.8499 40.8311 20.0299 41.0861 20.1199C41.3561 20.2099 41.746 20.2699 42.2561 20.2999V20.7499C41.9111 20.7199 41.4761 20.7049 40.9511 20.7049C40.4411 20.6899 39.9236 20.6824 39.3986 20.6824C38.8136 20.6824 38.2661 20.6899 37.7561 20.7049C37.2461 20.7049 36.8336 20.7199 36.5186 20.7499V20.2999C37.0286 20.2699 37.4111 20.2099 37.6661 20.1199C37.9361 20.0299 38.1161 19.8499 38.2061 19.5799C38.2961 19.3099 38.3411 18.9049 38.3411 18.3649V9.45488C38.3411 8.89988 38.2961 8.49488 38.2061 8.23988C38.1161 7.96988 37.9361 7.78988 37.6661 7.69988C37.4111 7.59488 37.0286 7.53489 36.5186 7.51988V7.06988C36.8336 7.08488 37.2461 7.09988 37.7561 7.11488C38.2661 7.12988 38.8136 7.13738 39.3986 7.13738C39.9236 7.13738 40.4411 7.12988 40.9511 7.11488C41.4761 7.09988 41.9111 7.08488 42.2561 7.06988ZM64.0203 7.06988V7.51988C63.5102 7.53489 63.1203 7.60988 62.8503 7.74488C62.5952 7.87988 62.4228 8.09739 62.3328 8.39738C62.2428 8.69738 62.1978 9.12488 62.1978 9.67988V20.8624C62.1078 20.8624 62.0178 20.8624 61.9278 20.8624C61.8527 20.8624 61.7703 20.8624 61.6803 20.8624L52.6803 8.39738V18.1399C52.6803 18.6799 52.7253 19.1074 52.8153 19.4224C52.9202 19.7224 53.1152 19.9399 53.4003 20.0749C53.7002 20.1949 54.1428 20.2699 54.7278 20.2999V20.7499C54.4578 20.7199 54.1052 20.7049 53.6703 20.7049C53.2352 20.6899 52.8227 20.6824 52.4328 20.6824C52.0577 20.6824 51.6752 20.6899 51.2853 20.7049C50.9102 20.7049 50.5952 20.7199 50.3403 20.7499V20.2999C50.8502 20.2699 51.2327 20.1949 51.4878 20.0749C51.7578 19.9399 51.9378 19.7224 52.0278 19.4224C52.1178 19.1074 52.1628 18.6799 52.1628 18.1399V9.45488C52.1628 8.89988 52.1178 8.49488 52.0278 8.23988C51.9378 7.96988 51.7578 7.78988 51.4878 7.69988C51.2327 7.59488 50.8502 7.53489 50.3403 7.51988V7.06988C50.5952 7.08488 50.9102 7.09988 51.2853 7.11488C51.6752 7.12988 52.0577 7.13738 52.4328 7.13738C52.8077 7.13738 53.1753 7.12988 53.5353 7.11488C53.8953 7.09988 54.2177 7.08488 54.5028 7.06988L61.6803 17.0599V9.67988C61.6803 9.12488 61.6277 8.69738 61.5228 8.39738C61.4328 8.09739 61.2377 7.87988 60.9378 7.74488C60.6527 7.60988 60.2178 7.53489 59.6328 7.51988V7.06988C59.9028 7.08488 60.2552 7.09988 60.6903 7.11488C61.1403 7.12988 61.5527 7.13738 61.9278 7.13738C62.3177 7.13738 62.7002 7.12988 63.0753 7.11488C63.4652 7.09988 63.7802 7.08488 64.0203 7.06988ZM63.2723 24.9799V24.5524C63.9473 24.5374 64.5098 24.3724 64.9598 24.0574C65.4248 23.7424 65.7698 23.2174 65.9948 22.4824C66.2348 21.7624 66.3548 20.7949 66.3548 19.5799V9.45488C66.3548 8.89988 66.3098 8.49488 66.2198 8.23988C66.1298 7.96988 65.9498 7.78988 65.6798 7.69988C65.4248 7.59488 65.0423 7.53489 64.5323 7.51988V7.06988C64.8473 7.08488 65.2598 7.09988 65.7698 7.11488C66.2798 7.12988 66.8123 7.13738 67.3673 7.13738C67.9223 7.13738 68.4548 7.12988 68.9648 7.11488C69.4898 7.09988 69.9248 7.08488 70.2698 7.06988V7.51988C69.7598 7.53489 69.3698 7.59488 69.0998 7.69988C68.8448 7.78988 68.6723 7.96988 68.5823 8.23988C68.4923 8.49488 68.4473 8.89988 68.4473 9.45488V15.4399C68.4473 16.0549 68.4398 16.7224 68.4248 17.4424C68.4098 18.1624 68.3723 18.8599 68.3123 19.5349C68.2673 20.2099 68.1848 20.8024 68.0648 21.3124C67.8098 22.3624 67.2698 23.2324 66.4448 23.9224C65.6348 24.6274 64.5773 24.9799 63.2723 24.9799ZM76.7558 7.06988V7.51988C76.2457 7.53489 75.8558 7.59488 75.5858 7.69988C75.3308 7.78988 75.1583 7.96988 75.0683 8.23988C74.9783 8.49488 74.9333 8.89988 74.9333 9.45488V18.3649C74.9333 18.9049 74.9783 19.3099 75.0683 19.5799C75.1583 19.8499 75.3308 20.0299 75.5858 20.1199C75.8558 20.2099 76.2457 20.2699 76.7558 20.2999V20.7499C76.4108 20.7199 75.9757 20.7049 75.4508 20.7049C74.9407 20.6899 74.4232 20.6824 73.8983 20.6824C73.3133 20.6824 72.7658 20.6899 72.2558 20.7049C71.7457 20.7049 71.3333 20.7199 71.0183 20.7499V20.2999C71.5283 20.2699 71.9108 20.2099 72.1658 20.1199C72.4358 20.0299 72.6158 19.8499 72.7058 19.5799C72.7958 19.3099 72.8408 18.9049 72.8408 18.3649V9.45488C72.8408 8.89988 72.7958 8.49488 72.7058 8.23988C72.6158 7.96988 72.4358 7.78988 72.1658 7.69988C71.9108 7.59488 71.5283 7.53489 71.0183 7.51988V7.06988C71.3333 7.08488 71.7457 7.09988 72.2558 7.11488C72.7658 7.12988 73.3133 7.13738 73.8983 7.13738C74.4232 7.13738 74.9407 7.12988 75.4508 7.11488C75.9757 7.09988 76.4108 7.08488 76.7558 7.06988ZM84.52 6.75488C85.15 6.75488 85.6825 6.82238 86.1175 6.95738C86.5525 7.09238 86.935 7.27238 87.265 7.49738C87.595 7.72238 87.91 7.96239 88.21 8.21738C88.51 8.45739 88.735 8.50239 88.885 8.35238C89.05 8.18739 89.1625 7.75989 89.2225 7.06988H89.74C89.71 7.54988 89.6875 8.13488 89.6725 8.82488C89.6575 9.51489 89.65 10.4299 89.65 11.5699H89.1325C89.0275 11.0749 88.8925 10.6024 88.7275 10.1524C88.5625 9.68738 88.3225 9.27488 88.0075 8.91488C87.5725 8.40488 87.085 7.98489 86.545 7.65488C86.005 7.32488 85.315 7.15988 84.475 7.15988C83.575 7.15988 82.795 7.43738 82.135 7.99238C81.475 8.53238 80.965 9.31239 80.605 10.3324C80.245 11.3374 80.065 12.5374 80.065 13.9324C80.065 16.2724 80.4925 17.9749 81.3475 19.0399C82.2025 20.0899 83.4475 20.6149 85.0825 20.6149C85.4275 20.6149 85.7425 20.5999 86.0275 20.5699C86.3125 20.5399 86.575 20.4949 86.815 20.4349C87.085 20.3599 87.265 20.2624 87.355 20.1424C87.46 20.0074 87.5125 19.8199 87.5125 19.5799V17.6449C87.5125 17.0299 87.4525 16.5724 87.3325 16.2724C87.2275 15.9724 87.01 15.7699 86.68 15.6649C86.35 15.5599 85.87 15.4999 85.24 15.4849V15.0349C85.645 15.0499 86.1475 15.0649 86.7475 15.0799C87.3475 15.0949 87.9025 15.1024 88.4125 15.1024C88.9075 15.1024 89.35 15.0949 89.74 15.0799C90.145 15.0649 90.4825 15.0499 90.7525 15.0349V15.4849C90.4375 15.4999 90.1975 15.5524 90.0325 15.6424C89.8675 15.7324 89.755 15.9124 89.695 16.1824C89.635 16.4524 89.605 16.8649 89.605 17.4199V20.7499H89.155C89.14 20.5849 89.11 20.4574 89.065 20.3674C89.02 20.2624 88.9375 20.2099 88.8175 20.2099C88.7125 20.2099 88.5475 20.2624 88.3225 20.3674C88.1125 20.4574 87.9475 20.5249 87.8275 20.5699C87.5425 20.6749 87.13 20.7799 86.59 20.8849C86.065 21.0049 85.495 21.0649 84.88 21.0649C83.38 21.0649 82.0975 20.7949 81.0325 20.2549C79.9825 19.6999 79.18 18.9124 78.625 17.8924C78.085 16.8574 77.815 15.6199 77.815 14.1799C77.815 12.6499 78.1 11.3299 78.67 10.2199C79.24 9.10988 80.0275 8.25488 81.0325 7.65488C82.0525 7.05488 83.215 6.75488 84.52 6.75488ZM97.6853 6.95738L102.95 18.8599C103.206 19.4149 103.468 19.7899 103.738 19.9849C104.008 20.1799 104.263 20.2849 104.503 20.2999V20.7499C104.203 20.7199 103.836 20.7049 103.4 20.7049C102.965 20.6899 102.531 20.6824 102.095 20.6824C101.51 20.6824 100.963 20.6899 100.453 20.7049C99.9431 20.7049 99.5303 20.7199 99.2153 20.7499V20.2999C99.9803 20.2699 100.475 20.1349 100.7 19.8949C100.925 19.6549 100.866 19.1599 100.52 18.4099L96.5603 9.47738L96.7628 9.43238L93.1403 17.5324C92.9603 17.9374 92.8405 18.3049 92.7803 18.6349C92.7353 18.9649 92.7578 19.2499 92.8478 19.4899C92.9529 19.7149 93.1403 19.8949 93.4103 20.0299C93.6803 20.1649 94.0481 20.2549 94.5128 20.2999V20.7499C94.2878 20.7199 93.9879 20.7049 93.6128 20.7049C93.2528 20.6899 92.8703 20.6824 92.4653 20.6824C92.2105 20.6824 91.8655 20.6899 91.4305 20.7049C91.0105 20.7049 90.703 20.7199 90.508 20.7499V20.2999C90.943 20.1799 91.303 19.9324 91.588 19.5574C91.873 19.1674 92.128 18.7174 92.3528 18.2074L97.3253 6.95738C97.3855 6.95738 97.4456 6.95738 97.5053 6.95738C97.5654 6.95738 97.6256 6.95738 97.6853 6.95738ZM99.9578 15.3949V15.8449H93.7028L93.9278 15.3949H99.9578ZM117.603 7.06988V7.49738C117.243 7.55739 116.928 7.64739 116.658 7.76738C116.388 7.87238 116.118 8.02988 115.848 8.23988C115.578 8.44988 115.248 8.74238 114.858 9.11738L110.335 13.6399L111.235 12.5599L116.275 18.9274C116.53 19.2574 116.8 19.5349 117.085 19.7599C117.371 19.9849 117.686 20.1649 118.03 20.2999V20.7499C117.67 20.7199 117.25 20.7049 116.77 20.7049C116.305 20.6899 115.886 20.6824 115.51 20.6824C115.211 20.6824 114.82 20.6899 114.34 20.7049C113.875 20.7049 113.313 20.7199 112.653 20.7499V20.2999C113.433 20.2699 113.861 20.1799 113.935 20.0299C114.025 19.8649 113.951 19.6174 113.71 19.2874L110.718 15.1249C110.418 14.7049 110.103 14.4049 109.773 14.2249C109.443 14.0299 108.956 13.9249 108.31 13.9099V13.5274C108.821 13.4974 109.308 13.3924 109.773 13.2124C110.253 13.0174 110.801 12.6199 111.415 12.0199L114.093 9.27488C114.333 9.04988 114.498 8.83238 114.588 8.62238C114.678 8.41239 114.693 8.22488 114.633 8.05988C114.588 7.89489 114.453 7.76738 114.228 7.67738C114.018 7.57238 113.726 7.51239 113.35 7.49738V7.06988C113.755 7.08488 114.198 7.09988 114.678 7.11488C115.173 7.12988 115.616 7.13738 116.005 7.13738C116.305 7.13738 116.59 7.12988 116.86 7.11488C117.146 7.09988 117.393 7.08488 117.603 7.06988ZM110.223 7.06988V7.51988C109.713 7.53489 109.323 7.59488 109.053 7.69988C108.798 7.78988 108.625 7.96988 108.535 8.23988C108.445 8.49488 108.4 8.89988 108.4 9.45488V18.3649C108.4 18.9049 108.445 19.3099 108.535 19.5799C108.625 19.8499 108.798 20.0299 109.053 20.1199C109.323 20.2099 109.713 20.2699 110.223 20.2999V20.7499C109.878 20.7199 109.443 20.7049 108.918 20.7049C108.408 20.6899 107.89 20.6824 107.365 20.6824C106.78 20.6824 106.233 20.6899 105.723 20.7049C105.213 20.7049 104.8 20.7199 104.485 20.7499V20.2999C104.996 20.2699 105.378 20.2099 105.633 20.1199C105.903 20.0299 106.083 19.8499 106.173 19.5799C106.263 19.3099 106.308 18.9049 106.308 18.3649V9.45488C106.308 8.89988 106.263 8.49488 106.173 8.23988C106.083 7.96988 105.903 7.78988 105.633 7.69988C105.378 7.59488 104.996 7.53489 104.485 7.51988V7.06988C104.8 7.08488 105.213 7.09988 105.723 7.11488C106.233 7.12988 106.78 7.13738 107.365 7.13738C107.89 7.13738 108.408 7.12988 108.918 7.11488C109.443 7.09988 109.878 7.08488 110.223 7.06988ZM124.045 7.06988V7.51988C123.534 7.53489 123.145 7.59488 122.875 7.69988C122.619 7.78988 122.447 7.96988 122.357 8.23988C122.267 8.49488 122.222 8.89988 122.222 9.45488V18.3649C122.222 18.9049 122.267 19.3099 122.357 19.5799C122.447 19.8499 122.619 20.0299 122.875 20.1199C123.145 20.1949 123.534 20.2324 124.045 20.2324H125.462C126.122 20.2324 126.692 20.1049 127.172 19.8499C127.667 19.5949 128.064 19.1824 128.365 18.6124C128.664 18.0274 128.852 17.2399 128.927 16.2499H129.445C129.4 16.7149 129.377 17.3299 129.377 18.0949C129.377 18.3499 129.384 18.7249 129.4 19.2199C129.429 19.7149 129.474 20.2249 129.535 20.7499C128.799 20.7199 127.974 20.7049 127.06 20.7049C126.144 20.6899 125.327 20.6824 124.607 20.6824C124.172 20.6824 123.595 20.6824 122.875 20.6824C122.155 20.6824 121.39 20.6899 120.58 20.7049C119.784 20.7049 119.027 20.7199 118.307 20.7499V20.2999C118.817 20.2699 119.199 20.2099 119.455 20.1199C119.725 20.0299 119.905 19.8499 119.995 19.5799C120.085 19.3099 120.13 18.9049 120.13 18.3649V9.45488C120.13 8.89988 120.085 8.49488 119.995 8.23988C119.905 7.96988 119.725 7.78988 119.455 7.69988C119.199 7.59488 118.817 7.53489 118.307 7.51988V7.06988C118.622 7.08488 119.034 7.09988 119.545 7.11488C120.054 7.12988 120.602 7.13738 121.187 7.13738C121.712 7.13738 122.229 7.12988 122.74 7.11488C123.264 7.09988 123.699 7.08488 124.045 7.06988ZM137.043 6.75488C138.423 6.75488 139.63 7.03238 140.665 7.58738C141.7 8.12738 142.503 8.92238 143.073 9.97238C143.658 11.0074 143.95 12.2749 143.95 13.7749C143.95 15.2299 143.651 16.5049 143.05 17.5999C142.465 18.6949 141.648 19.5499 140.598 20.1649C139.563 20.7649 138.37 21.0649 137.02 21.0649C135.641 21.0649 134.433 20.7949 133.398 20.2549C132.363 19.6999 131.553 18.8974 130.968 17.8474C130.398 16.7974 130.113 15.5299 130.113 14.0449C130.113 12.5899 130.405 11.3149 130.99 10.2199C131.591 9.12488 132.408 8.27739 133.443 7.67738C134.493 7.06238 135.693 6.75488 137.043 6.75488ZM136.953 7.15988C136.023 7.15988 135.213 7.45238 134.523 8.03738C133.833 8.60738 133.301 9.40239 132.925 10.4224C132.551 11.4424 132.363 12.6199 132.363 13.9549C132.363 15.3199 132.573 16.5049 132.993 17.5099C133.428 18.5149 134.005 19.2949 134.725 19.8499C135.445 20.3899 136.241 20.6599 137.11 20.6599C138.041 20.6599 138.851 20.3749 139.54 19.8049C140.231 19.2199 140.763 18.4174 141.138 17.3974C141.513 16.3624 141.7 15.1849 141.7 13.8649C141.7 12.4849 141.483 11.2999 141.048 10.3099C140.628 9.30488 140.058 8.53238 139.338 7.99238C138.633 7.43738 137.838 7.15988 136.953 7.15988ZM144.984 7.06988C145.299 7.08488 145.711 7.09988 146.221 7.11488C146.731 7.12988 147.234 7.13738 147.729 7.13738C148.433 7.13738 149.108 7.12988 149.754 7.11488C150.398 7.09988 150.856 7.09238 151.126 7.09238C152.776 7.09238 154.013 7.44489 154.839 8.14988C155.678 8.83989 156.099 9.73989 156.099 10.8499C156.099 11.3299 156.009 11.8249 155.829 12.3349C155.649 12.8449 155.348 13.3174 154.929 13.7524C154.508 14.1874 153.931 14.5399 153.196 14.8099C152.461 15.0799 151.531 15.2149 150.406 15.2149H148.471C148.471 15.2149 148.471 15.1399 148.471 14.9899C148.471 14.8399 148.471 14.7649 148.471 14.7649H150.181C151.186 14.7649 151.951 14.5999 152.476 14.2699C153.001 13.9249 153.361 13.4749 153.556 12.9199C153.751 12.3499 153.849 11.7424 153.849 11.0974C153.849 9.91238 153.601 9.01989 153.106 8.41988C152.611 7.81988 151.763 7.51988 150.564 7.51988C149.873 7.51988 149.423 7.64739 149.214 7.90238C149.003 8.15738 148.899 8.67488 148.899 9.45488V18.3649C148.899 18.9049 148.944 19.3099 149.034 19.5799C149.124 19.8499 149.296 20.0299 149.551 20.1199C149.821 20.2099 150.211 20.2699 150.721 20.2999V20.7499C150.376 20.7199 149.941 20.7049 149.416 20.7049C148.906 20.6899 148.388 20.6824 147.864 20.6824C147.279 20.6824 146.731 20.6899 146.221 20.7049C145.711 20.7049 145.299 20.7199 144.984 20.7499V20.2999C145.493 20.2699 145.876 20.2099 146.131 20.1199C146.401 20.0299 146.581 19.8499 146.671 19.5799C146.761 19.3099 146.806 18.9049 146.806 18.3649V9.45488C146.806 8.89988 146.761 8.49488 146.671 8.23988C146.581 7.96988 146.401 7.78988 146.131 7.69988C145.876 7.59488 145.493 7.53489 144.984 7.51988V7.06988ZM167.517 7.06988C167.457 7.54988 167.412 8.01488 167.382 8.46488C167.367 8.91488 167.36 9.25988 167.36 9.49988C167.36 9.76988 167.367 10.0324 167.382 10.2874C167.397 10.5274 167.412 10.7299 167.427 10.8949H166.91C166.805 9.64989 166.542 8.78738 166.122 8.30738C165.717 7.82739 165.05 7.58738 164.12 7.58738H162.477C161.967 7.58738 161.577 7.63238 161.307 7.72238C161.052 7.79738 160.88 7.96988 160.79 8.23988C160.7 8.49488 160.655 8.89988 160.655 9.45488V18.3649C160.655 18.9049 160.7 19.3099 160.79 19.5799C160.88 19.8499 161.052 20.0299 161.307 20.1199C161.577 20.1949 161.967 20.2324 162.477 20.2324H164.12C164.855 20.2324 165.44 20.1199 165.875 19.8949C166.325 19.6549 166.662 19.2574 166.887 18.7024C167.127 18.1474 167.285 17.4049 167.36 16.4749H167.877C167.832 16.8799 167.81 17.4199 167.81 18.0949C167.81 18.3499 167.817 18.7249 167.832 19.2199C167.862 19.7149 167.907 20.2249 167.967 20.7499C167.232 20.7199 166.407 20.7049 165.492 20.7049C164.577 20.6899 163.76 20.6824 163.04 20.6824C162.605 20.6824 162.027 20.6824 161.307 20.6824C160.587 20.6824 159.822 20.6899 159.012 20.7049C158.217 20.7049 157.46 20.7199 156.74 20.7499V20.2999C157.25 20.2699 157.632 20.2099 157.887 20.1199C158.157 20.0299 158.337 19.8499 158.427 19.5799C158.517 19.3099 158.562 18.9049 158.562 18.3649V9.45488C158.562 8.89988 158.517 8.49488 158.427 8.23988C158.337 7.96988 158.157 7.78988 157.887 7.69988C157.632 7.59488 157.25 7.53489 156.74 7.51988V7.06988C157.46 7.08488 158.217 7.09988 159.012 7.11488C159.822 7.12988 160.587 7.13738 161.307 7.13738C162.027 7.13738 162.605 7.13738 163.04 7.13738C163.7 7.13738 164.442 7.13738 165.267 7.13738C166.107 7.12238 166.857 7.09988 167.517 7.06988ZM164.255 13.6399C164.255 13.6399 164.255 13.7149 164.255 13.8649C164.255 14.0149 164.255 14.0899 164.255 14.0899H159.98C159.98 14.0899 159.98 14.0149 159.98 13.8649C159.98 13.7149 159.98 13.6399 159.98 13.6399H164.255ZM164.907 11.3449C164.847 12.0349 164.817 12.5524 164.817 12.8974C164.832 13.2424 164.84 13.5649 164.84 13.8649C164.84 14.1649 164.847 14.4874 164.862 14.8324C164.877 15.1774 164.915 15.6949 164.975 16.3849H164.457C164.412 16.0099 164.337 15.6499 164.232 15.3049C164.127 14.9599 163.947 14.6749 163.692 14.4499C163.437 14.2099 163.047 14.0899 162.522 14.0899V13.6399C163.047 13.6399 163.43 13.5049 163.67 13.2349C163.925 12.9649 164.097 12.6499 164.187 12.2899C164.277 11.9299 164.345 11.6149 164.39 11.3449H164.907Z" fill="#E9DFCB"/>
</g>
<defs>
<clipPath id="clip0_3402_7897">
<rect width="27" height="27" fill="white" transform="translate(0 0.5)"/>
</clipPath>
<clipPath id="clip1_3402_7897">
<rect width="132.188" height="18.5625" fill="white" transform="translate(36 6.6875)"/>
</clipPath>
</defs>
</svg>
